<?xml version="1.0" encoding="UTF-8" standalone="no"?>
<!-- Created with Inkscape (http://www.inkscape.org/) -->

<svg
   width="265"
   height="240"
   viewBox="0 0 70.114582 63.5"
   version="1.1"
   id="svg1"
   xml:space="preserve"
   inkscape:version="1.4.3 (0d15f75042, 2025-12-25)"
   sodipodi:docname="Medalla Aniversario.svg"
   xmlns:inkscape="http://www.inkscape.org/namespaces/inkscape"
   xmlns:sodipodi="http://sodipodi.sourceforge.net/DTD/sodipodi-0.dtd"
   xmlns="http://www.w3.org/2000/svg"
   xmlns:svg="http://www.w3.org/2000/svg"><sodipodi:namedview
     id="namedview1"
     pagecolor="#ffffff"
     bordercolor="#111111"
     borderopacity="1"
     inkscape:showpageshadow="0"
     inkscape:pageopacity="0"
     inkscape:pagecheckerboard="1"
     inkscape:deskcolor="#d1d1d1"
     inkscape:document-units="mm"
     inkscape:zoom="1.5156072"
     inkscape:cx="-155.71317"
     inkscape:cy="282.72497"
     inkscape:window-width="2560"
     inkscape:window-height="1412"
     inkscape:window-x="0"
     inkscape:window-y="0"
     inkscape:window-maximized="1"
     inkscape:current-layer="layer1"
     showguides="false" /><defs
     id="defs1"><inkscape:path-effect
       effect="offset"
       id="path-effect3"
       is_visible="true"
       lpeversion="1.2"
       linejoin_type="bevel"
       unit="mm"
       offset="-0.2"
       miter_limit="4"
       attempt_force_join="false"
       update_on_knot_move="true" /><clipPath
       clipPathUnits="userSpaceOnUse"
       id="clipPath3"><path
         style="fill:#000000;fill-opacity:0;stroke:#0099cc;stroke-width:1.90524;stroke-dasharray:none;stroke-opacity:1"
         d="M 120.5293,5.2226562 142.80273,42.175781 12.945313,124.17188 4.8867187,129.31836 -8.4648438,27.035156 Z"
         id="path4-9" /></clipPath><inkscape:path-effect
       effect="offset"
       id="path-effect2"
       is_visible="true"
       lpeversion="1.2"
       linejoin_type="bevel"
       unit="mm"
       offset="-0.2"
       miter_limit="4"
       attempt_force_join="false"
       update_on_knot_move="true" /><inkscape:path-effect
       effect="offset"
       id="path-effect3-0"
       is_visible="true"
       lpeversion="1.3"
       linejoin_type="bevel"
       unit="mm"
       offset="-0.2"
       miter_limit="4"
       attempt_force_join="false"
       update_on_knot_move="true" /><clipPath
       clipPathUnits="userSpaceOnUse"
       id="clipPath3-4"><path
         style="fill:#000000;fill-opacity:0;stroke:#0099cc;stroke-width:1.90524;stroke-dasharray:none;stroke-opacity:1"
         d="M 120.48047,5.328125 142.67383,42.146484 12.894531,124.0918 4.9609375,129.1582 -8.359375,27.113281 Z"
         id="path4-3" /></clipPath><inkscape:path-effect
       effect="offset"
       id="path-effect2-2"
       is_visible="true"
       lpeversion="1.3"
       linejoin_type="bevel"
       unit="mm"
       offset="-0.2"
       miter_limit="4"
       attempt_force_join="false"
       update_on_knot_move="true" /></defs><g
     inkscape:label="Capa 1"
     inkscape:groupmode="layer"
     id="layer1"><rect
       style="display:inline;fill:#000000;stroke:none;stroke-width:1.092;stroke-linecap:round;stroke-linejoin:round;stroke-dasharray:none;stroke-opacity:1"
       id="rect3"
       width="70.608482"
       height="64.559853"
       x="-0.1234414"
       y="-0.1234414" /><path
       style="fill:#ff5555;stroke:#ff5555;stroke-width:0.899999;stroke-linecap:round;stroke-linejoin:round;stroke-dasharray:none;stroke-opacity:1;fill-opacity:1"
       d="M 30.10427,54.607388 V 30.179221 L 58.961861,16.169777 V 40.67394 Z"
       id="path2" /><path
       style="fill:#ffffff;stroke:#ffffff;stroke-width:0.9;stroke-linecap:round;stroke-linejoin:miter;stroke-dasharray:none"
       d="M 58.555779,33.992538 V 40.22455 L 30.646,53.768329 v -6.283884 z"
       id="path1" /><path
       style="fill:#00ffff;stroke:#00ffff;stroke-width:0.9;stroke-linecap:round;stroke-linejoin:miter;stroke-dasharray:none;stroke-opacity:1"
       d="m 58.524919,25.587302 v 6.232012 L 30.61514,45.363093 v -6.283884 z"
       id="path1-3" /><path
       style="fill:#ffffff;stroke:#ffffff;stroke-width:0.9;stroke-linecap:round;stroke-linejoin:miter;stroke-dasharray:none"
       d="m 58.555779,17.120345 v 6.232012 L 30.646,36.896136 v -6.283884 z"
       id="path1-3-1" /><path
       style="fill:#ffb380;stroke:#ffb380;stroke-width:0.899999;stroke-linecap:round;stroke-linejoin:round;stroke-dasharray:none;stroke-opacity:1;fill-opacity:1"
       d="m 29.808254,54.815764 c 0,0 -16.86924,0.823148 -16.86924,-4.520099 0,-5.343247 0,-24.982653 0,-24.982653 0,0 3.994518,4.538886 7.573255,4.757101 3.578736,0.218215 9.208699,0.218215 9.208699,0.218215 z"
       id="path11" /><path
       style="fill:#ff5555;fill-opacity:1;stroke:#ff5555;stroke-width:0.899999;stroke-linecap:round;stroke-linejoin:round;stroke-dasharray:none;stroke-opacity:1"
       d="M 12.992207,25.058603 58.961861,15.92974 27.058736,31.641264 c 0,0 -13.33804,-1.294392 -14.066529,-6.582661 z"
       id="path18" /><ellipse
       style="fill:#ffffff;fill-opacity:1;stroke:#ffffff;stroke-width:1.09331;stroke-linecap:round;stroke-linejoin:round;stroke-dasharray:none;stroke-opacity:1"
       id="path21"
       cx="15.935856"
       cy="24.990477"
       transform="matrix(0.9998909,-0.0147714,0.04670867,0.99890855,0,0)"
       rx="3.1847718"
       ry="2.4822407" /><ellipse
       style="fill:#ffffff;fill-opacity:1;stroke:#ffffff;stroke-width:1.10543;stroke-linecap:round;stroke-linejoin:round;stroke-dasharray:none;stroke-opacity:1"
       id="path21-5"
       cx="26.150665"
       cy="28.405642"
       rx="3.2628326"
       ry="2.4768891"
       transform="matrix(0.9998909,-0.0147714,0.04670867,0.99890855,0,0)" /><ellipse
       style="fill:#ffffff;fill-opacity:1;stroke:#ffffff;stroke-width:1.42737;stroke-linecap:round;stroke-linejoin:round;stroke-dasharray:none;stroke-opacity:1"
       id="path21-2"
       cx="21.306692"
       cy="26.368717"
       rx="4.3756399"
       ry="3.0794485"
       transform="matrix(0.9998909,-0.0147714,0.04670867,0.99890855,0,0)" /><circle
       style="fill:#ffffff;fill-opacity:1;stroke:#ffffff;stroke-width:0.899999;stroke-linecap:round;stroke-linejoin:round;stroke-dasharray:none;stroke-opacity:1"
       id="path15-3-6"
       cx="46.813965"
       cy="25.259733"
       r="1.6693494" /><path
       style="fill:none;fill-opacity:1;stroke:#cccccc;stroke-width:0.6;stroke-linecap:round;stroke-linejoin:miter;stroke-dasharray:none;stroke-opacity:1"
       d="m 30.073409,30.289433 c 0,0 1.11483,-0.864092 1.153406,-1.685747 0.03858,-0.821656 0.231452,-1.489012 -0.975958,-2.65399 -1.20741,-1.164978 -2.846866,-0.995246 -2.846866,-0.995246 0,0 -0.694399,-2.085453 -3.21479,-2.532795 -2.52039,-0.447342 -4.277026,0.316413 -4.277026,0.316413 0,0 -1.39658,-1.145633 -2.79316,-1.058346 -1.39658,0.08729 -2.705873,0.545539 -3.21868,1.418401 -0.512807,0.872863 -0.567361,1.462045 -0.512807,1.560242 0.05455,0.0982 0.02182,-0.02182 0.02182,-0.02182"
       id="path22" /><path
       style="fill:#f77d02;fill-opacity:1;stroke:none;stroke-width:0.291999;stroke-linecap:round;stroke-linejoin:round;stroke-dasharray:none;stroke-opacity:1"
       d="m 36.264768,12.733751 c -0.01156,-0.03086 0.393469,-0.682785 0.516911,-0.752221 0.123441,-0.06944 0.790797,-0.871805 0.813943,-1.593165 C 37.618772,9.6670043 37.560902,9.1848114 37.105711,8.3824424 36.650522,7.5800733 35.732426,6.769989 35.732426,6.769989 c 0,0 0.123441,0.3086036 -0.0077,0.5824892 -0.131154,0.2738856 -0.864089,2.0753581 -0.914236,2.4302531 -0.05015,0.3548927 -0.07715,1.3732847 0.343321,1.7628967 0.420473,0.389612 1.018392,1.014534 1.045395,1.072397 0.027,0.05786 0.06558,0.115726 0.06558,0.115726 z"
       id="path8" /><path
       style="fill:#ffc928;fill-opacity:1;stroke:none;stroke-width:0.291999;stroke-linecap:round;stroke-linejoin:round;stroke-dasharray:none;stroke-opacity:1"
       d="m 36.426785,12.463724 c 0,0 0.320178,-0.67507 0.297032,-1.612453 -0.02315,-0.9373827 -0.0039,-1.2305577 -0.200594,-1.5237307 -0.196734,-0.293173 -0.362609,-0.4281872 -0.362609,-0.4281872 0,0 0.05787,0.050148 0.03086,0.162017 -0.027,0.1118688 -0.505338,1.0916859 -0.540057,1.1804089 -0.03472,0.08872 -0.200591,0.482193 -0.196733,0.694358 0.0039,0.212165 0.15816,1.265274 0.651925,1.415718 0.493765,0.150445 0.320175,0.111869 0.320176,0.111869 z"
       id="path7" /><path
       style="fill:#fff073;fill-opacity:1;stroke:none;stroke-width:0.291999;stroke-linecap:round;stroke-linejoin:round;stroke-dasharray:none;stroke-opacity:1"
       d="m 36.129756,10.994 c 0,0 0.335605,0.26617 0.362608,0.590204 0.027,0.324034 0.05786,0.590204 0.01543,0.671213 -0.04243,0.08101 -0.543915,0.239167 -0.651926,-0.216023 -0.108011,-0.45519 0.277744,-0.763794 0.281602,-0.883377 0.0039,-0.119584 -0.0077,-0.162017 -0.0077,-0.162017 z"
       id="path6" /><ellipse
       style="fill:#ffffff;fill-opacity:1;stroke:#ffffff;stroke-width:0.899999;stroke-linecap:round;stroke-linejoin:round;stroke-dasharray:none;stroke-opacity:1"
       id="path20"
       cx="33.530888"
       cy="24.620733"
       rx="6.2191448"
       ry="2.0730484"
       transform="rotate(-2.3496193)" /><path
       style="fill:#502d16;fill-opacity:1;stroke:#696a49;stroke-width:0.292;stroke-linecap:round;stroke-linejoin:round;stroke-dasharray:none;stroke-opacity:1"
       d="m 36.249336,12.128117 v 0.6905"
       id="path5" /><path
       style="display:inline;fill:#55ddff;fill-opacity:1;stroke:none;stroke-width:1.092;stroke-linecap:round;stroke-linejoin:round;stroke-dasharray:none;stroke-opacity:1"
       d="m 37.682296,16.055696 -6.622844,1.494777 -1.025614,6.382807 8.881377,0.02182 0.501896,-2.825892 -6.175503,0.03273 0.294591,-1.549331 6.251876,-1.614796 1.058347,-5.379014 -8.761357,-0.01091 -0.720111,3.20777 2.444015,0.05455 0.174572,-0.981971 3.895148,0.02182 z"
       id="path4" /><path
       style="fill:none;fill-opacity:1;stroke:#ea3b3b;stroke-width:1;stroke-linecap:round;stroke-linejoin:miter;stroke-dasharray:none;stroke-opacity:1"
       d="M 29.919109,30.474594 59.049147,15.973383"
       id="path24" /><path
       style="fill:#ffb380;fill-opacity:1;stroke:#ffb380;stroke-width:0;stroke-linecap:round;stroke-linejoin:miter;stroke-dasharray:none;stroke-opacity:1"
       d="m 12.56922,25.313012 c 0,0 3.447807,3.011374 6.415539,3.884237 2.967732,0.872863 9.906989,1.702083 10.343419,1.614797 0.436433,-0.08729 0.261861,2.531301 0.261861,2.531301 L 13.223866,31.597621 Z"
       id="path26" /><path
       style="fill:none;fill-opacity:1;stroke:#ea3b3b;stroke-width:0.600001;stroke-linecap:round;stroke-linejoin:miter;stroke-dasharray:none;stroke-opacity:1"
       d="m 29.920998,30.519544 -0.04059,24.423196 v 0"
       id="path23" /><path
       style="fill:none;fill-opacity:1;stroke:#ea3b3b;stroke-width:1.1;stroke-linecap:round;stroke-linejoin:round;stroke-dasharray:none;stroke-opacity:1"
       d="m 13.13658,25.182082 c 0,0 5.935465,5.586319 16.453457,5.368104"
       id="path19" /></g></svg>
